<?xml version="1.0" encoding="UTF-8" standalone="no" ?>
<!DOCTYPE svg PUBLIC "-//W3C//DTD SVG 1.1//EN" "http://www.w3.org/Graphics/SVG/1.1/DTD/svg11.dtd">
<svg xmlns="http://www.w3.org/2000/svg" xmlns:xlink="http://www.w3.org/1999/xlink" version="1.1" width="1080" height="1080" viewBox="0 0 1080 1080" xml:space="preserve">
<desc>Created with Fabric.js 5.2.4</desc>
<defs>
</defs>
<rect x="0" y="0" width="100%" height="100%" fill="transparent"></rect>
<g transform="matrix(1 0 0 1 540 540)" id="144379e0-e0b1-49fc-b2a8-56d979510776"  >
<rect style="stroke: none; stroke-width: 1; stroke-dasharray: none; stroke-linecap: butt; stroke-dashoffset: 0; stroke-linejoin: miter; stroke-miterlimit: 4; fill: rgb(255,255,255); fill-rule: nonzero; opacity: 1; visibility: hidden;" vector-effect="non-scaling-stroke"  x="-540" y="-540" rx="0" ry="0" width="1080" height="1080" />
</g>
<g transform="matrix(1 0 0 1 540 540)" id="4927f76d-d99d-470f-a2a6-e2330a3938b1"  >
</g>
<g transform="matrix(2.47 0 0 2.47 475.84 539.76)"  >
<g style=""   >
		<g transform="matrix(0.14 0 0 -0.14 82.37 -127.88)"  >
<path style="stroke: none; stroke-width: 1; stroke-dasharray: none; stroke-linecap: butt; stroke-dashoffset: 0; stroke-linejoin: miter; stroke-miterlimit: 4; fill: rgb(0,0,0); fill-rule: nonzero; opacity: 1;" vector-effect="non-scaling-stroke"  transform=" translate(-2098.8, -2322.02)" d="M 2245.81 2749.64 C 2148.68 2585.53 2050.43 2376.76 1992.38 2211.53 C 1942.14 2065.28 1865.11 1782.82 1872.92 1773.89 C 1880.74 1767.19 2028.11 2028.43 2078.35 2136.73 C 2144.21 2279.63 2221.25 2491.75 2277.07 2683.77 C 2306.09 2784.25 2327.31 2867.98 2325.07 2870.21 C 2322.84 2872.45 2287.12 2818.86 2245.81 2749.64 Z" stroke-linecap="round" />
</g>
		<g transform="matrix(0.14 0 0 -0.14 46.24 -96.32)"  >
<path style="stroke: none; stroke-width: 1; stroke-dasharray: none; stroke-linecap: butt; stroke-dashoffset: 0; stroke-linejoin: miter; stroke-miterlimit: 4; fill: rgb(0,0,0); fill-rule: nonzero; opacity: 1;" vector-effect="non-scaling-stroke"  transform=" translate(-1845.64, -2100.93)" d="M 1938.79 2655.86 C 1915.35 2612.32 1836.08 2349.96 1809.29 2228.27 C 1765.75 2029.55 1746.77 1881.07 1740.07 1686.81 C 1734.49 1516 1735.61 1510.42 1752.35 1547.26 C 1809.29 1670.06 1888.56 2002.76 1918.7 2245.02 C 1937.68 2386.8 1958.89 2667.02 1953.31 2672.61 C 1951.07 2674.84 1944.38 2667.02 1938.79 2655.86 Z" stroke-linecap="round" />
</g>
		<g transform="matrix(0.14 0 0 -0.14 16.59 -65.5)"  >
<path style="stroke: none; stroke-width: 1; stroke-dasharray: none; stroke-linecap: butt; stroke-dashoffset: 0; stroke-linejoin: miter; stroke-miterlimit: 4; fill: rgb(0,0,0); fill-rule: nonzero; opacity: 1;" vector-effect="non-scaling-stroke"  transform=" translate(-1637.93, -1884.97)" d="M 1600.52 2315.35 C 1577.07 2104.35 1581.54 1744.86 1611.68 1552.84 C 1625.08 1466.88 1639.59 1378.68 1645.18 1357.47 L 1654.11 1318.39 L 1660.81 1351.89 C 1689.83 1484.74 1699.88 1848.69 1679.79 2055.23 C 1663.04 2228.27 1631.78 2451.56 1623.96 2451.56 C 1619.5 2451.56 1609.45 2390.15 1600.52 2315.35 Z" stroke-linecap="round" />
</g>
		<g transform="matrix(0.14 0 0 -0.14 0 40.14)"  >
<path style="stroke: none; stroke-width: 1; stroke-dasharray: none; stroke-linecap: butt; stroke-dashoffset: 0; stroke-linejoin: miter; stroke-miterlimit: 4; fill: rgb(0,0,0); fill-rule: nonzero; opacity: 1;" vector-effect="non-scaling-stroke"  transform=" translate(-1521.67, -1144.85)" d="M 2310.56 2303.07 C 2203.38 2275.16 2090.63 2109.93 1802.59 1559.54 C 1412.96 812.657 1198.18 499.973 889.361 322.55 C 828.864 287.792 786.099 277.908 785.291 278.526 C 782.883 280.369 725.902 218.666 685.711 176.242 C 652.219 141.633 575.648 95.917 581.23 95.917 C 602.442 95.917 874.647 171.184 941.632 215.841 C 1123.61 337.53 1303.74 562.58 1425.43 743.439 L 1484.6 831.636 L 1738.96 832.753 C 1896.37 832.753 2025.87 829.403 2025.87 824.938 C 2025.87 819.356 2005.77 685.682 1963.35 531.32 C 1883.57 240.98 1855.17 165.853 1898.6 68.01 C 1931.26 -5.57 1994.71 -16.28 2033.69 -17.96 C 2175.34 -24.07 2328.42 119.362 2377.54 287.941 C 2387.59 323.666 2394.29 370.556 2392.06 394.001 L 2333.24 498.614 L 2257.68 354.275 C 2375.42 227.646 2172.13 111.547 2099.56 197.511 C 2059.37 245.517 2061.6 286.825 2120.77 561.463 C 2148.68 688.735 2171.01 802.609 2171.01 812.657 C 2171.01 830.52 2183.29 832.753 2270.37 832.753 C 2359.68 832.753 2379.25 850.113 2377.54 853.964 C 2380.9 866.245 2393.7 888.561 2414.91 906.424 L 2462.39 944.394 L 2332.89 944.394 C 2262.55 944.394 2204.5 946.627 2204.5 948.86 C 2204.5 952.209 2259.21 1212.33 2326.19 1527.16 C 2393.17 1841.99 2451.23 2127.79 2455.69 2161.29 C 2465.74 2241.67 2450.11 2280.75 2399.87 2300.84 C 2378.66 2309.77 2335.12 2309.77 2310.56 2303.07 Z M 2246.01 2060.96 C 2332.61 2060.48 2240.23 1848.69 2174.36 1528.28 L 2053.78 944.394 L 1794.78 944.394 C 1651.87 944.394 1568.33 946.627 1568.33 949.976 C 1568.33 952.209 1620.81 1049.34 1684.44 1164.33 C 1748.08 1279.32 1860.84 1490.32 1936.75 1630.99 C 2116.5 1968.15 2155.74 2084.56 2246.01 2060.96 Z" stroke-linecap="round" />
</g>
		<g transform="matrix(0.14 0 0 -0.14 -7.29 -39.6)"  >
<path style="stroke: none; stroke-width: 1; stroke-dasharray: none; stroke-linecap: butt; stroke-dashoffset: 0; stroke-linejoin: miter; stroke-miterlimit: 4; fill: rgb(0,0,0); fill-rule: nonzero; opacity: 1;" vector-effect="non-scaling-stroke"  transform=" translate(-1470.59, -1703.55)" d="M 1339.28 2114.4 C 1342.63 2094.3 1350.44 2042.95 1356.02 1999.41 C 1372.77 1887.77 1406.26 1748.21 1446.45 1625.41 C 1487.76 1500.37 1589.35 1256.99 1601.63 1256.99 C 1613.92 1256.99 1583.77 1432.27 1544.7 1591.91 C 1502.27 1766.08 1360.49 2150.12 1339.28 2150.12 C 1335.93 2150.12 1335.93 2133.38 1339.28 2114.4 Z" stroke-linecap="round" />
</g>
		<g transform="matrix(0.14 0 0 -0.14 -19.27 -9.33)"  >
<path style="stroke: none; stroke-width: 1; stroke-dasharray: none; stroke-linecap: butt; stroke-dashoffset: 0; stroke-linejoin: miter; stroke-miterlimit: 4; fill: rgb(0,0,0); fill-rule: nonzero; opacity: 1;" vector-effect="non-scaling-stroke"  transform=" translate(-1386.68, -1491.44)" d="M 1205.31 1768.31 C 1220.94 1718.07 1331.46 1504.84 1378.35 1434.5 C 1447.57 1332.91 1558.09 1190.01 1569.26 1190.01 C 1588.24 1190.01 1479.95 1405.47 1397.33 1530.51 C 1339.28 1617.59 1209.77 1792.87 1203.08 1792.87 C 1200.84 1792.87 1201.96 1781.71 1205.31 1768.31 Z" stroke-linecap="round" />
</g>
		<g transform="matrix(0.14 0 0 -0.14 -34.92 29.28)"  >
<path style="stroke: none; stroke-width: 1; stroke-dasharray: none; stroke-linecap: butt; stroke-dashoffset: 0; stroke-linejoin: miter; stroke-miterlimit: 4; fill: rgb(0,0,0); fill-rule: nonzero; opacity: 1;" vector-effect="non-scaling-stroke"  transform=" translate(-1277.02, -1220.91)" d="M 1080.27 1272.62 C 1201.96 1210.1 1534.65 1108.51 1534.65 1134.18 C 1534.65 1159.86 1091.43 1313.93 1021.1 1311.69 C 1012.17 1311.69 1038.96 1293.83 1080.27 1272.62 Z" stroke-linecap="round" />
</g>
		<g transform="matrix(0.14 0 0 -0.14 -40.8 44.23)"  >
<path style="stroke: none; stroke-width: 1; stroke-dasharray: none; stroke-linecap: butt; stroke-dashoffset: 0; stroke-linejoin: miter; stroke-miterlimit: 4; fill: rgb(0,0,0); fill-rule: nonzero; opacity: 1;" vector-effect="non-scaling-stroke"  transform=" translate(-1235.79, -1116.15)" d="M 1004.35 1135.3 L 959.696 1127.49 L 1032.26 1112.97 C 1121.58 1095.11 1463.2 1083.94 1501.16 1098.46 C 1523.49 1107.39 1514.56 1110.74 1439.76 1121.9 C 1332.58 1138.65 1066.87 1146.46 1004.35 1135.3 Z" stroke-linecap="round" />
</g>
		<g transform="matrix(0.14 0 0 -0.14 -41.41 65.63)"  >
<path style="stroke: none; stroke-width: 1; stroke-dasharray: none; stroke-linecap: butt; stroke-dashoffset: 0; stroke-linejoin: miter; stroke-miterlimit: 4; fill: rgb(0,0,0); fill-rule: nonzero; opacity: 1;" vector-effect="non-scaling-stroke"  transform=" translate(-1231.55, -966.21)" d="M 1361.61 1034.82 C 1248.85 1000.21 1123.81 948.86 1032.26 898.621 L 970.86 865.129 L 1015.52 870.711 C 1089.2 880.758 1230.99 930.997 1364.96 994.631 C 1535.77 1076.13 1534.65 1088.41 1361.61 1034.82 Z" stroke-linecap="round" />
</g>
		<g transform="matrix(0.14 0 0 -0.14 -38.05 81.39)"  >
<path style="stroke: none; stroke-width: 1; stroke-dasharray: none; stroke-linecap: butt; stroke-dashoffset: 0; stroke-linejoin: miter; stroke-miterlimit: 4; fill: rgb(0,0,0); fill-rule: nonzero; opacity: 1;" vector-effect="non-scaling-stroke"  transform=" translate(-1255.07, -855.79)" d="M 1329.23 930.997 C 1230.99 870.711 1059.06 734.508 1070.22 724.46 C 1079.15 715.529 1193.03 783.63 1286.81 855.081 C 1474.36 997.981 1492.23 1029.24 1329.23 930.997 Z" stroke-linecap="round" />
</g>
		<g transform="matrix(0.14 0 0 -0.14 -32.75 90.34)"  >
<path style="stroke: none; stroke-width: 1; stroke-dasharray: none; stroke-linecap: butt; stroke-dashoffset: 0; stroke-linejoin: miter; stroke-miterlimit: 4; fill: rgb(0,0,0); fill-rule: nonzero; opacity: 1;" vector-effect="non-scaling-stroke"  transform=" translate(-1292.18, -793.11)" d="M 1354.91 878.526 C 1296.85 828.287 1159.53 665.29 1175.16 665.29 C 1194.14 665.29 1286.81 753.487 1342.63 824.938 C 1429.71 935.463 1431.94 946.627 1354.91 878.526 Z" stroke-linecap="round" />
</g>
</g>
</g>
</svg>