<svg class="svg-icon" style="width: 1em; height: 1em;vertical-align: middle;fill: currentColor;overflow: hidden;" viewBox="0 0 1024 1024" version="1.1" xmlns="http://www.w3.org/2000/svg"><path d="M896 64 128 64C92.8 64 64 92.8 64 128l0 768c0 35.2 28.8 64 64 64l768 0c35.2 0 64-28.8 64-64L960 128C960 92.8 931.2 64 896 64zM192 864c0 19.2-12.8 32-32 32s-32-12.8-32-32l0-32c0-19.2 12.8-32 32-32s32 12.8 32 32L192 864zM416 864c0 19.2-12.8 32-32 32s-32-12.8-32-32l0-32c0-19.2 12.8-32 32-32s32 12.8 32 32L416 864zM640 864c0 19.2-12.8 32-32 32s-32-12.8-32-32l0-32c0-19.2 12.8-32 32-32s32 12.8 32 32L640 864zM896 864c0 19.2-12.8 32-32 32s-32-12.8-32-32l0-32c0-19.2 12.8-32 32-32s32 12.8 32 32L896 864zM896 384c0 19.2-12.8 32-32 32L544 416l0 96 256 0c19.2 0 32 12.8 32 32s-12.8 32-32 32l-256 0 0 96 320 0c19.2 0 32 12.8 32 32s-12.8 32-32 32L544 736l-64 0L160 736c-19.2 0-32-12.8-32-32s12.8-32 32-32l320 0 0-96L224 576c-19.2 0-32-12.8-32-32s12.8-32 32-32l256 0 0-96L160 416c-19.2 0-32-12.8-32-32L128 160c0-19.2 12.8-32 32-32l704 0c19.2 0 32 12.8 32 32L896 384z"  /><path d="M544 352l288 0L832 192l-288 0L544 352zM649.6 265.6l32-32c12.8-12.8 32-12.8 44.8 0s12.8 32 0 44.8l-32 32C688 316.8 681.6 320 672 320s-16-3.2-22.4-9.6C636.8 297.6 636.8 278.4 649.6 265.6z"  /><path d="M192 352l288 0L480 192 192 192 192 352zM297.6 233.6c12.8-12.8 32-12.8 44.8 0l32 32c12.8 12.8 12.8 32 0 44.8C368 316.8 361.6 320 352 320s-16-3.2-22.4-9.6l-32-32C284.8 265.6 284.8 246.4 297.6 233.6z"  /></svg>